<?xml version="1.0" standalone="no"?>
<!DOCTYPE svg PUBLIC "-//W3C//DTD SVG 20010904//EN"
 "http://www.w3.org/TR/2001/REC-SVG-20010904/DTD/svg10.dtd">
<svg version="1.0" xmlns="http://www.w3.org/2000/svg"
 width="715.000000pt" height="715.000000pt" viewBox="0 0 715.000000 715.000000"
 preserveAspectRatio="xMidYMid meet">
<metadata>
Created by potrace 1.11, written by Peter Selinger 2001-2013
</metadata>
<g transform="translate(0.000000,715.000000) scale(0.100000,-0.100000)"
fill="#000000" stroke="none">
<path d="M726 7060 c-6 -13 2 -3732 8 -3785 4 -33 12 -87 17 -120 5 -33 12
-71 14 -85 54 -339 199 -779 365 -1109 87 -175 248 -440 271 -449 5 -2 9 -9 9
-14 0 -23 210 -280 325 -398 61 -63 158 -156 240 -229 125 -112 384 -288 580
-395 116 -63 412 -197 465 -211 3 0 43 -14 90 -30 47 -16 87 -30 90 -30 13 -3
98 -28 120 -36 14 -5 40 -11 57 -14 18 -3 70 -14 115 -25 l81 -19 116 24 c557
118 1127 406 1542 778 127 114 316 309 356 368 9 13 24 31 33 39 20 18 171
225 190 259 7 14 17 30 22 35 14 17 77 116 79 124 0 4 18 36 39 72 61 107 107
199 178 360 101 230 199 550 251 820 23 118 26 134 48 300 4 30 7 892 8 1915
l0 1860 -2853 0 c-1570 0 -2855 -2 -2856 -5z"/>
</g>
</svg>
